# xmcd
#
# Track frame offsets: 
#        150
#        16689
#        32479
#        48743
#        63208
#        74313
#        83993
#        101456
#        112868
#        124022
#        136666
#        153895
#        166034
#        182291
#        200054
#        218049
#        232759
#        243484
#        255948
#        272757
#
# Disc length: 3831 seconds
#
# Revision: 0
# Processed by: cddbd v1.5.2PL0 Copyright (c) Steve Scherf et al.
# Submitted via: ExactAudioCopy v1.1
#
DISCID=f40ef514
DTITLE=Jimmy Frey - De Allergrootste Hits - CD 2
DYEAR=2019
DGENRE=Chanson
TTITLE0=Harten Kennen Geen Geheimen
TTITLE1=Kom Dans Marie
TTITLE2=Neem Mijn Hand
TTITLE3=Een Parel Van Een Vrouw
TTITLE4=In M'n Droom
TTITLE5=Jij Bent Een Droom Voor Overdag
TTITLE6=En De Wereld Mag Het Weten
TTITLE7=Eenzaam Oudje
TTITLE8=Eenmaal Blauw, Eenmaal Grauw
TTITLE9=Ik Heb Een Groot Verdriet
TTITLE10=Het Gezicht Van Een Clown
TTITLE11=Dubbel Spel
TTITLE12=40 Jaar
TTITLE13=Als De Kinderen Slapen Zijn
TTITLE14=Ik Hou Van Jou (Na Na Na)
TTITLE15=De Liefde Blijft Een Kracht
TTITLE16=Laat Ons Vergeven En Vergeten
TTITLE17=Nieuwe Liefde, Nieuwe Dromen
TTITLE18=Heist Aan Zee 1951
TTITLE19=Geen Ogen Zijn Zo Blauw
EXTD=
EXTT0=
EXTT1=
EXTT2=
EXTT3=
EXTT4=
EXTT5=
EXTT6=
EXTT7=
EXTT8=
EXTT9=
EXTT10=
EXTT11=
EXTT12=
EXTT13=
EXTT14=
EXTT15=
EXTT16=
EXTT17=
EXTT18=
EXTT19=
PLAYORDER=
